4D546864000000060001000B00784D54726B0000001900FF5902000000FF51030DDF2200FF58040202180800FF2F004D54726B0000077700C04700B0075A000A40005B58005D018F009045571245001645531445001445551345001545571C45000C42531642001243571543001345576F450009495C6F490009475717470011475016470012475315470013475320470008434C18430010475A15470013455A816445000C45531645001245481445001445481145001745481C45000C49461B49000D474C17470011454C1C45000C43504443000C434C6F430009434E16430012435013430015434A104300184353234300054246254200034048174000113E5081633E000D45531845001045531745001145501545001345552245000642531A42000E434C1A43000E45576D45000B494E70490008475A17470011475516470012475513470015475321470007434C1743001147571B47000D4557816145000F45551545001345531345001545501345001545531B45000D494C1C49000C47481847001045551A45000E43574343000D43536F430009435017430011435313430015434C134300154355274300014246264200024053154000133E4E81603E00104A551A4A000E4A55174A00114A53174A00114A50224A0006454323450005474A1D47000B4A55474A00094A4C1B4A000D4E50714E00074C57184C00104C531A4C000E4C53194C000F4C50254C00034A4E274A0001494A1A49000E4757816C47000449551B49000D49481949000F494C1949000F495317490011494E1E49000A4A551B4A000D4C4A784553034C006F450006495716490012494C1A49000E4A53194A000F4C50224C00064A53254A00034953244900044A4C816A4A008F0645571245001645531445001445551345001545571C45000C42531642001243571543001345576F450009495C6F490009475717470011475016470012475315470013475320470008434C18430010475A15470013455A816445000C45531645001245481445001445481145001745481C45000C49461B49000D474C17470011454C1C45000C43504443000C434C6F430009434E16430012435013430015434A104300184353234300054246254200034048174000113E5081633E000D45531845001045531745001145501545001345552245000642531A42000E434C1A43000E45576D45000B494E70490008475A17470011475516470012475513470015475321470007434C1743001147571B47000D4557816145000F45551545001345531345001545501345001545531B45000D494C1C49000C47481847001045551A45000E43574343000D43536F430009435017430011435313430015434C134300154355274300014246264200024053154000133E4E81603E00104A551A4A000E4A55174A00114A53174A00114A50224A0006454323450005474A1D47000B4A55474A00094A4C1B4A000D4E50714E00074C57184C00104C531A4C000E4C53194C000F4C50254C00034A4E274A0001494A1A49000E4757816C47000449551B49000D49481949000F494C1949000F495317490011494E1E49000A4A551B4A000D4C4A784553034C006F450006495716490012494C1A49000E4A53194A000F4C50224C00064A53254A00034953244900044A4C816A4A008F0645531845001045531745001145501545001345552245000642531A42000E434C1A43000E45576D45000B494E70490008475A17470011475516470012475513470015475321470007434C1743001147571B47000D4557816145000F45551545001345531345001545501345001545531B45000D494C1C49000C47481847001045551A45000E43574343000D43536F430009435017430011435313430015434C134300154355274300014246264200024053154000133E4E81603E00104A551A4A000E4A55174A00114A53174A00114A50224A0006454323450005474A1D47000B4A55474A00094A4C1B4A000D4E50714E00074C57184C00104C531A4C000E4C53194C000F4C50254C00034A4E274A0001494A1A49000E4757816C47000449551B49000D49481949000F494C1949000F495317490011494E1E49000A4A551B4A000D4C4A784553034C006F450006495716490012494C1A49000E4A53194A000F4C50224C00064A53254A00034953244900044A4C816A4A00064A551A4A000E4A55174A00114A53174A00114A50224A0006454323450005474A1D47000B4A55474A00094A4C1B4A000D4E50714E00074C57184C00104C531A4C000E4C53194C000F4C50254C00034A4E274A0001494A1A49000E4757816C47000449551B49000D49481949000F494C1949000F495317490011494E1E49000A4A551B4A000D4C4A784553034C006F450006495716490012494C1A49000E4A53194A000F4C50224C00064A53254A00034953244900044A4C816A4A00064C551A4C000E4C55174C00114C53174C00114C50224C0006474323470005494A1D49000B4C55474C00094C4C1B4C000D5050715000074E57184E00104E531A4E000E4E53194E000F4E50254E00034C4E274C00014B4A1A4B000E4957816C4900044B551B4B000D4B48194B000F4B4C194B000F4B53174B00114B4E1E4B000A4C551B4C000D4E4A784753034E006F4700064B57164B00124B4C1A4B000E4C53194C000F4E50224E00064C53254C00034B53244B00044E5A83634E00014C41827F4C0000FF2F004D54726B0000016800C33000B3075A000A17005B58005D01D97893513183644F3B0151008170512F024F0083624F34035100825D4C35014F00774A3A004C008162473C004A000A493E044700084A3F0449008166473C024A0081704350014700816E473C024300816D495202470081734544004900815D4500024C55817E4A3C024C0081714A008F005131835C4F3B0951008168512F024F0083624F34035100825D4C35014F00774A3A004C008162473C004A000A493E044700084A3F0449008166473C024A0081704350014700816E473C024300816D495202470081734544004900815D4500024C55817E4A3C024C0081714A00014A3F816A473C024A0081704350014700816E473C024300816D495202470081734544004900815D4500024C55817E4A3C024C0081714A00014C3F816A493C024C0081704550014900816E493C024500816D4B5202490081734744004B00815D4700024E55817447440C4E00836440480047008325400000FF2F004D54726B0000018C00C43100B40755000A68005B58005D01D96F943E4082024233033E008168433D0142008169454E024300810347550245007945440247008163434603450081604A440343007E4C33054A007A4A40024C008356474A034A00814349570447002D4A5203490081724E52014A0081034C57014E00734E48034C0081644C50014E0081674544014C00816F4A3D024500817A4A008E7B3E4081714233143E008157433D0142008169454E024300810347550245007945440247008163434603450081604A440343007E4C33054A007A4A40024C008356474A034A00814349570447002D4A5203490081724E52014A0081034C57014E00734E48034C0081644C50014E0081674544014C00816F4A3D024500817A4A008161474A814649570447002D4A5203490081724E52014A0081034C57014E00734E48034C0081644C50014E0081674544014C00816F4A3D024500817A4A008161494A81464B570449002D4C52034B0081725052014C0081034E57015000735048034E0081644E5001500081674744014E008558470000FF2F004D54726B0000032C00C62000B6075A000A40005B42005D01BC0096263C8134260013262D0E26001B264981622600102A5281682A0008215881692100062B4D81322B00122B370E2B001A2B5081722D40012B00813D2D000C2D3C212D0007214B816321000D265081332600112637272600022A4D81732B4D022A0081672B00062149816421000B264B816D2600032B4D815F2B00112B496D2B000C285063280013264D816226000F264B81712600012A4B81662A00082B4981662B0009214D814A210004214621210006264D81642600082B4D815D2B00132B44692B000E28466D28000C2640815E2600102650816126000F234D81472300032342262300022B4981662B000A234B815F2300112A5281342A00122A491F2A0009214D816621000E2150815C2100122458816524000D26508133260013263E0F2600820B2A4681362A00102A44222A000A214B81582100162B4D81392B000D2B40112B00192B50815B2B00162D4681382D000F2D460E2D001A2D4D792149002D00272100012D50242D0001283C282800042658812D260019264D112600172A4D815A2A00142B5281402B000D2B550D2B001A2D4981502D001C2649813C26000E264B132600152B5081542B001A2B55692B0011284D40280011284B0E280019264D815226001D265B8134260015264D00254D0E25000026001A2355815E2300122B44002A46072A00812D2B00152B50132B00142350815A2300152A5081312A00152A4D152A001321507A2100012D58502D00012150242100042D58812E2D00192D50112D00152655814526002C265B8134260015264D00254D0E25000026001A2355815E2300122B44002A46072A00812D2B00152B50132B00142350815A2300152A5081312A00152A4D152A001321507A2100012D58502D00012150242100042D58812E2D00192D50112D00152655814526002C285B8134280015284D00274D0E27000028001A2555815E2500122D44002C46072C00812D2D00152D50132D00142550815A2500152C5081312C00152C4D152C001323507A2300012F58502F000123502423000A234011230013233E1123001523440F230019235011230014234D11230017234D10230017234B8366283101280000230000FF2F004D54726B000006B300C90000B9075A000A40005B63005D01F423993B5A013B0073355A013500522A62012A00272E6E012E00816E24620124007736730136004F245D01240029244F01240079366E01360073245D01240078365F0136004E244D01240028245D01240076366801360075245D01240079366201360050245101240027245601240076366E01360077245D0124007836680136004F24560124002524620124007B366801360024304B013000142F56012F00132D4D012D0025312B012462003100012400773673013600252A1B012A00272C2F012C0001245D01240027244F012400272A25012A00262A29012A00282C3301366E002C000136004F2A34012A0026245D012400272A27012A00272A23012A0027365F002C28012C00003600272A25012A00252E30012E0001244D012400262A3301245D002A00012400282A23012A00292A07012A00243668012C40003600012C004E2A31012A0025245D012400272A2F012A00272A2B012A00272C46012C000136620136004F2451002A2F012A00002400252A32012A000124560124004D2A30012A00282C3801366E002C00013600262A23012A00262E34012E0029245D002A40012A00002400272A2D012A00272A23012A00272C44003668013600002C004F2456012A30002400012A00252462012400282A29012A00272A28012A00292C30013668002C0001360024304B012A28003000012A00132F56012F00102E42012E00022D4D012D0025312B01246200310001240075285D012800013673013600252A1B012A00272C2F012C0001245D01240027244F012400272A25012A00262A29012A00282C3300285100366E013600002800002C004F2A34012A0027245D012400272A27012A00272A23012A0026285301365F002C28002800012C00003600272A25012A00252E30012E0001244D012400262A3301245D002A00012400272A23012A00282A07012A00263668002C4001284D002C000036000128004E2A31012A0025245D012400272A2F012A00272A2B012A00272C46012C000136620028510128000036004F2451002A2F012A00002400252A32012A000124560124004D2A30012A00282C3801366E002853002C00012800003600262A23012A00262E34012E0029245D002A40012A00002400272A2D012A00272A23012A00272C44003668002858012800003600002C004F2456002A30012A0000240026263800243A01240000260025263401243600260001240029264600244901240000260027264600244901240000260028264F00244D01240000260026265F00245D01240000260026312B01246200310001240075285D012800013673013600252A1B012A00272C2F012C0001245D01240027244F012400272A25012A00262A29012A00282C3300285100366E013600002800002C004F2A34012A0027245D012400272A27012A00272A23012A0026285301365F002C28002800012C00003600272A25012A00252E30012E0001244D012400262A3301245D002A00012400272A23012A00282A07012A00263668002C4001284D002C000036000128004E2A31012A0025245D012400272A2F012A00272A2B012A00272C46012C000136620028510128000036004F2451002A2F012A00002400252A32012A000124560124004D2A30012A00282C3801366E002853002C00012800003600262A23012A00262E34012E00282465012A38002400012A00272A36012A00272A2E012A00252668003662013600002600022C56012C00262A33012A0025246B002A3C012A00002400292465012400263046013000162F38012F000F2D53012D002A305D013000262F4F012F00142D58012D00122B58012B0026312B01246200310001240075285D012800013673013600252A1B012A00272C2F012C0001245D01240027244F012400272A25012A00262A29012A00282C3300285100366E013600002800002C004F2A34012A0027245D012400272A27012A00272A23012A0026285301365F002C28002800012C00003600272A25012A00252E30012E0001244D012400262A3301245D002A00012400272A23012A00282A07012A00263668002C4001284D002C000036000128004E2A31012A0025245D012400272A2F012A00272A2B012A00272C46012C000136620028510128000036004F2451002A2F012A00002400252A32012A000124560124004D2A30012A00282C3801366E002853002C00012800003600262A23012A00262E34012E0028263800243A01240000260025263401243600260001240029264600244901240000260027264600244901240000260028264F00244D01240000260026265F00245D01240000260026265600245A00365F013600002400002600012E5F012E0000FF2F004D54726B00000E9600CB1900BB075A000A1F005B58005D01019B3257283957293E6E06390023405E023E00263E670040001B3200063E0006395128325A01390028395C283E5A013900274069033E00234000023E5A243E000339490932001039000F365A283949293D55053900234267063D001636000A4200023D5A283953023D00153900122D60262D00013455283962273B64013900133400143B0001395C23390004344B123400163760283B49283E53023B00264057043E00053700203E49024000253B4B003E00233B00043757293A44273E5A023A00253700024367083E00203E5C034300253A49033E00193A000E395C273E4D284064043E0026456B04400024405E0445001839000C3E55044000183E00063953103E600B405C15455A81353900033E0000400000450009326726394B293E67053900254067053E00243E3D00400027395A003E001232000F390008366E28395A283D5C033900243D0001426B283D53024200073600203953033D00203900033762293B55273E5C003B0027370002406E043E00204000033E3F283B4F053E001D3B00063964283E5728405A043E0024456E02400026405A024500273E57024000213E00033257003900273955283E57023900284067043E00243E53014000233E00033967093200173900072B5C2732552937640332001E3700093E67263E00013B5E122B00163B0001375E1C37000C3767283B4F133700153E4B003B000F3E001934602837491D34000C3B470437000F3B00123255283949293E51033900233E00034064113200163E49034000203E0004395A1C39000D326726394B293E67053900254067053E001732000D3E3D00400027395A003E0021390008366E28395A283D5C033900243D0001426B1D36000B3D53024200273953033D00203900033762293B55273E5C003B0029406E043E000E3700124000033E3F283B4F053E001D3B00063964283E5728405A043E0023390001456E02400026405A024500273E57024000213E00033257273955283E57023900284067043E00043200203E53014000233E00033967203900072B5C2732552937640332001E3700093E67263E00013B5E283B0001375E1B2B000137000C3767283B4F133700153E4B003B000F3E001934602837491D34000C3B470437000F3B00123255283949293E510339001932000A3E00034064273E49034000203E0004395A1C39000D3257273947283E62043900244073053E000532001E3E62024000233E00033951133900152F5728364F293B6B03360024426B023B00112F00163E5A024200263B51023E00133B00123749293B4B283E60053B0003370021406E063E00233E5A024000253B4B023E00123B00152F6927365A293B390136001C2F000B426E043B00233E5A014200263E00013B5E1D3B000A365C27394F273D450339001C36000A4269073D00213D4506420023394D043D001939000C3960283D55284055013D00123900164569064000214055024500263D5A0140001E3D0008396B283E5A273E00003900014051284564054000234057024500263E57014000123E0015325E28395C273900013E64273E00014062273200013E60004000273E00013960203900093257283957293E6E06390023405E023E00263E670040001B3200063E0006395128325A01390028395C283E5A013900274069033E00234000023E5A243E000339490932001039000F365A283949293D55053900234267063D001636000A4200023D5A283953023D00153900122D60262D00013455283962273B64013900133400143B0001395C23390004344B123400163760283B49283E53023B00264057043E00053700203E49024000253B4B003E00233B00043757293A44273E5A023A00253700024367083E00203E5C034300253A49033E00193A000E395C273E4D284064043E0026456B04400024405E0445001839000C3E55044000183E00063953103E600B405C15455A81353900033E0000400000450009326726394B293E67053900254067053E00243E3D00400027395A003E001232000F390008366E28395A283D5C033900243D0001426B283D53024200073600203953033D00203900033762293B55273E5C003B0027370002406E043E00204000033E3F283B4F053E001D3B00063964283E5728405A043E0024456E02400026405A024500273E57024000213E00033257003900273955283E57023900284067043E00243E53014000233E00033967093200173900072B5C2732552937640332001E3700093E67263E00013B5E122B00163B0001375E1C37000C3767283B4F133700153E4B003B000F3E001934602837491D34000C3B470437000F3B00123255283949293E51033900233E00034064113200163E49034000203E0004395A1C39000D326726394B293E67053900254067053E001732000D3E3D00400027395A003E0021390008366E28395A283D5C033900243D0001426B1D36000B3D53024200273953033D00203900033762293B55273E5C003B0029406E043E000E3700124000033E3F283B4F053E001D3B00063964283E5728405A043E0023390001456E02400026405A024500273E57024000213E00033257273955283E57023900284067043E00043200203E53014000233E00033967203900072B5C2732552937640332001E3700093E67263E00013B5E283B0001375E1B2B000137000C3767283B4F133700153E4B003B000F3E001934602837491D34000C3B470437000F3B00123255283949293E510339001932000A3E00034064273E49034000203E0004395A1C39000D3257273947283E62043900244073053E000532001E3E62024000233E00033951133900152F5728364F293B6B03360024426B023B00112F00163E5A024200263B51023E00133B00123749293B4B283E60053B0003370021406E063E00233E5A024000253B4B023E00123B00152F6927365A293B390136001C2F000B426E043B00233E5A014200263E00013B5E1D3B000A365C27394F273D450339001C36000A4269073D00213D4506420023394D043D001939000C3960283D55284055013D00123900164569064000214055024500263D5A0140001E3D0008396B283E5A273E00003900014051284564054000234057024500263E57014000123E00173C5C00435A816D3C00023E64034300253957023E0026425E013900274060004200283E5700400026395A003E002639000232622A3953283E53013900274057053E00233E53014000253E0002394B0932001D3900033667273945293D600739001B3D0006425C274200013D4B1D3600083D000339571D39000C395E263D4528403F023D0025455A034000093900134500074042274000023D41273D00033769273B42273E41033B00254049053E00214000023E490B37001C3E00013B5A223B000A375A283A3F263E41183A000E405A023E001F3700014000073E4B293A49033E00203A00053957283E49284041273E000145690440002245000240420939001F3E440440001D3E00063957293D3A28403C26455C064000093D00194057003900283D49204500074000013D0001326726394B293E67053900254067053E001732000D3E3D00400027395A003E0021390008366E28395A283D5C033900243D0001426B1D36000B3D53024200273953033D00203900033762293B55273E5C003B0029406E043E000E3700124000033E3F283B4F053E001D3B00063964283E5728405A043E0023390001456E02400026405A024500273E57024000213E00033257273955283E57023900284067043E00043200203E53014000233E00033967203900072B5C2732552937640332001E3700093E67263E00013B5E283B0001375E1B2B000137000C3767283B4F133700153E4B003B000F3E001934602837491D34000C3B470437000F3B00123255283949293E510339001932000A3E00034064273E49034000203E0004395A1C39000D3257273947283E62043900244073053E000532001E3E62024000233E00033951133900152F5728364F293B6B03360024426B023B00112F00163E5A024200263B51023E00133B00123749293B4B283E60053B0003370021406E063E00233E5A024000253B4B023E00123B00152F6927365A293B390136001C2F000B426E043B00233E5A014200263E00013B5E1D3B000A365C27394F273D450339001C36000A4269073D00213D4506420023394D043D001939000C3960283D55284055013D00123900164569064000214055024500263D5A0140001E3D0008396B283E5A273E00003900014051284564054000234057024500263E57014000123E0018326B25320001395A28425A0939001F4060054200233E4B014000253E0002395A273257063900213947283E62043900244073053E000532001E3E62024000233E00033951133900152F5728364F293B6B03360024426B023B00112F00163E5A024200263B51023E00133B00123749293B4B283E60053B0003370021406E063E00233E5A024000253B4B023E00123B00152F6927365A293B390136001C2F000B426E043B00233E5A014200263E00013B5E1D3B000A365C27394F273D450339001C36000A4269073D00213D4506420023394D043D001939000C3960283D55284055013D00123900164569064000214055024500263D5A0140001E3D0008396B283E5A273E00003900014051284564054000234057024500263E57014000123E0018326B25320001395A28425A0939001F4060054200233E4B014000253E0002395A273457063900213B47284062043B002442730540000534001E4062024200234000033B51133B0015315728384F293D6B03380024446B023D0011310016405A024400263D51024000133D00123949293D4B284060053D0003390021426E06400023405A024200253D4B024000123D0015316927385A293D390138001C31000B446E043D0023405A014400264000013D5E1D3D000A385C273B4F273F45033B001C38000A4469073F00213F45064400233B4D043F00193B000C3B60283F55284255013F00123B00164769064200214255024700263F5A0142001E3F00083B6B28405A274000003B000142512847640542002342570247002640570142001240001F3B55113F5A15425C19476E822B47000A4200063B00023F005D344B0A38550B3B4B0A4060831D3400024000023800013B0000FF2F004D54726B00000F2500CC1900BC075A000A60005B58005D01019C3257283957293E6E06390023405E023E00263E670040001B3200063E0006395128325A01390028395C283E5A013900274069033E00234000023E5A243E000339490932001039000F365A283949293D55053900234267063D001636000A4200023D5A283953023D00153900122D60262D00013455283962273B64013900133400143B0001395C23390004344B123400163760283B49283E53023B00264057043E00053700203E49024000253B4B003E00233B00043757293A44273E5A023A00253700024367083E00203E5C034300253A49033E00193A000E395C273E4D284064043E0026456B04400024405E0445001839000C3E55044000183E00063953103E600B405C15455A81353900033E0000400000450009326726394B293E67053900254067053E00243E3D00400027395A003E001232000F390008366E28395A283D5C033900243D0001426B283D53024200073600203953033D00203900033762293B55273E5C003B0027370002406E043E00204000033E3F283B4F053E001D3B00063964283E5728405A043E0024456E02400026405A024500273E57024000213E00033257003900273955283E57023900284067043E00243E53014000233E00033967093200173900072B5C2732552937640332001E3700093E67263E00013B5E122B00163B0001375E1C37000C3767283B4F133700153E4B003B000F3E001934602837491D34000C3B470437000F3B00123255283949293E51033900233E00034064113200163E49034000203E0004395A1C39000D326726394B293E67053900254067053E001732000D3E3D00400027395A003E0021390008366E28395A283D5C033900243D0001426B1D36000B3D53024200273953033D00203900033762293B55273E5C003B0029406E043E000E3700124000033E3F283B4F053E001D3B00063964283E5728405A043E0023390001456E02400026405A024500273E57024000213E00033257273955283E57023900284067043E00043200203E53014000233E00033967203900072B5C2732552937640332001E3700093E67263E00013B5E283B0001375E1B2B000137000C3767283B4F133700153E4B003B000F3E001934602837491D34000C3B470437000F3B00123255283949293E510339001932000A3E00034064273E49034000203E0004395A1C39000D3257273947283E62043900244073053E000532001E3E62024000233E00033951133900152F5728364F293B6B03360024426B023B00112F00163E5A024200263B51023E00133B00123749293B4B283E60053B0003370021406E063E00233E5A024000253B4B023E00123B00152F6927365A293B390136001C2F000B426E043B00233E5A014200263E00013B5E1D3B000A365C27394F273D450339001C36000A4269073D00213D4506420023394D043D001939000C3960283D55284055013D00123900164569064000214055024500263D5A0140001E3D0008396B283E5A273E00003900014051284564054000234057024500263E57014000123E0015325E28395C273900013E64273E00014062273200013E60004000273E00013960203900093257283957293E6E06390023405E023E00263E670040001B3200063E0006395128325A01390028395C283E5A013900274069033E00234000023E5A243E000339490932001039000F365A283949293D55053900234267063D001636000A4200023D5A283953023D00153900122D60262D00013455283962273B64013900133400143B0001395C23390004344B123400163760283B49283E53023B00264057043E00053700203E49024000253B4B003E00233B00043757293A44273E5A023A00253700024367083E00203E5C034300253A49033E00193A000E395C273E4D284064043E0026456B04400024405E0445001839000C3E55044000183E00063953103E600B405C15455A81353900033E0000400000450009326726394B293E67053900254067053E00243E3D00400027395A003E001232000F390008366E28395A283D5C033900243D0001426B283D53024200073600203953033D00203900033762293B55273E5C003B0027370002406E043E00204000033E3F283B4F053E001D3B00063964283E5728405A043E0024456E02400026405A024500273E57024000213E00033257003900273955283E57023900284067043E00243E53014000233E00033967093200173900072B5C2732552937640332001E3700093E67263E00013B5E122B00163B0001375E1C37000C3767283B4F133700153E4B003B000F3E001934602837491D34000C3B470437000F3B00123255283949293E51033900233E00034064113200163E49034000203E0004395A1C39000D326726394B293E67053900254067053E001732000D3E3D00400027395A003E0021390008366E28395A283D5C033900243D0001426B1D36000B3D53024200273953033D00203900033762293B55273E5C003B0029406E043E000E3700124000033E3F283B4F053E001D3B00063964283E5728405A043E0023390001456E02400026405A024500273E57024000213E00033257273955283E57023900284067043E00043200203E53014000233E00033967203900072B5C2732552937640332001E3700093E67263E00013B5E283B0001375E1B2B000137000C3767283B4F133700153E4B003B000F3E001934602837491D34000C3B470437000F3B00123255283949293E510339001932000A3E00034064273E49034000203E0004395A1C39000D3257273947283E62043900244073053E000532001E3E62024000233E00033951133900152F5728364F293B6B03360024426B023B00112F00163E5A024200263B51023E00133B00123749293B4B283E60053B0003370021406E063E00233E5A024000253B4B023E00123B00152F6927365A293B390136001C2F000B426E043B00233E5A014200263E00013B5E1D3B000A365C27394F273D450339001C36000A4269073D00213D4506420023394D043D001939000C3960283D55284055013D00123900164569064000214055024500263D5A0140001E3D0008396B283E5A273E00003900014051284564054000234057024500263E57014000123E0015437313430001487313480001476E13470001487613480001456413450001487913480001436B13430001487913480001417327410001407C27400015457013450001446E13440001456E13450001426E13420001457013450001407013400001456B134500013E70133E00013D6B133D00013B6B133B00013969133900063970133B5A02390015395C013B004439000B396B1D3900083B6B08EC2B4A027F7F180075030040049C3967013B001C39000E3970113B6E023900133B0001395E6D3900543D76473D00093E794D3E000540704240000C406B0AEC6750024F56021A59147557009C400002EC234C020040019C3E6E1D3E000B3E70143E00143E6E24BC010302010511010601010702010902010B02010E02010F0201120201130701140D0111020109020100019C3E0038EC4A4202514B016E4E079C406B0EEC1C4E026845020040199C3E70024000183E000D3E766E3E000C42732242000645701645001245794945000743700E430004426B1342000340701D40000A396E2737570A3900093700013970133900013B67133B00013D67133D00013E6E133E0001407013400001427313420001436913430001456B13450001477613470001326726394B293E67053900254067053E001732000D3E3D00400027395A003E0021390008366E28395A283D5C033900243D0001426B1D36000B3D53024200273953033D00203900033762293B55273E5C003B0029406E043E000E3700124000033E3F283B4F053E001D3B00063964283E5728405A043E0023390001456E02400026405A024500273E57024000213E00033257273955283E57023900284067043E00043200203E53014000233E00033967203900072B5C2732552937640332001E3700093E67263E00013B5E283B0001375E1B2B000137000C3767283B4F133700153E4B003B000F3E001934602837491D34000C3B470437000F3B00123255283949293E510339001932000A3E00034064273E49034000203E0004395A1C39000D3257273947283E62043900244073053E000532001E3E62024000233E00033951133900152F5728364F293B6B03360024426B023B00112F00163E5A024200263B51023E00133B00123749293B4B283E60053B0003370021406E063E00233E5A024000253B4B023E00123B00152F6927365A293B390136001C2F000B426E043B00233E5A014200263E00013B5E1D3B000A365C27394F273D450339001C36000A4269073D00213D4506420023394D043D001939000C3960283D55284055013D00123900164569064000214055024500263D5A0140001E3D0008396B283E5A273E00003900014051284564054000234057024500263E57014000123E0015325A26394901320028390001425C294057004200283E51014000233E0004395C243900033257273947283E62043900244073053E000532001E3E62024000233E00033951133900152F5728364F293B6B03360024426B023B00112F00163E5A024200263B51023E00133B00123749293B4B283E60053B0003370021406E063E00233E5A024000253B4B023E00123B00152F6927365A293B390136001C2F000B426E043B00233E5A014200263E00013B5E1D3B000A365C27394F273D450339001C36000A4269073D00213D4506420023394D043D001939000C3960283D55284055013D00123900164569064000214055024500263D5A0140001E3D0008396B283E5A273E00003900014051284564054000234057024500263E57014000123E0015325A26394901320028390001425C294057004200283E51014000233E0004395C243900033457273B47284062043B002442730540000534001E4062024200234000033B51133B0015315728384F293D6B03380024446B023D0011310016405A024400263D51024000133D00123949293D4B284060053D0003390021426E06400023405A024200253D4B024000123D0015316927385A293D390138001C31000B446E043D0023405A014400264000013D5E1D3D000A385C273B4F273F45033B001C38000A4469073F00213F45064400233B4D043F00193B000C3B60283F55284255013F00123B00164769064200214255024700263F5A0142001E3F00083B6B28405A274000003B000142512847640542002342570247002640570142001240001F3B55113F5A15425C19476E822B47000A4200063B00023F005D284B0A2C550B2F4B0A3460831D2800023400022C00012F0000FF2F004D54726B000015D500CD1600BD076A000A50005B58005D21089D51646CED5A3E02623C023C3B024439027936020135022E34035B33026331026B2F02722D027A2B02552A025D28023727016426243727025D2802552A017A2B02202D02452E0D182F023D30011031026331025B33020135022636027936024C3702713802173A023C3B02623C01073E025A3E022D3F0B7F3F0200404BBD010602010A01010C03010E01010F02011302011701011B03011E01012106011D01011702010D0301010101000D9D4E57005100284F59034E00235157024F0025510002556642BD010102010502010902010D02010F02011202011401011602011902011C02011F02012302012602012901012B02012C02012D02012E0B012B020117010100069D550004535D4EED073E024C3702182F020A28023F25027422094723023727024D2C010833023C3B0200400D9D530002515556BD010101010202010415010502010604010705010904010A02010C01010D02010E04010F0D010D020100049D5100034C59284E55004C00264E00024F6652BD01010201020201030901040A01051501063701072B010909010A02010B02010C02010D02010E02010F02011104011201011304011402011503011602011708011905011A02011B02011C02011D02011E02011F10012102012208012314012202011F02011D02011C02011902011602011302010E010109020100049D4F000B4F69284E59004F00274A48014E001F4A000D4A6946BD010201010402010504010602010902010B02010D02010E02010F03011106011202011301011402011502011602011703011902011A0A011B31011A05011906011701011602011402011202010E02010A010105020100299D4A00024C6968ED5A3E02623C023C3B02173A027138024C37027936020135015B33036331013D3002182F2B1031013632035B33022E34010135022636027936021E3801443903693A013C3B020F3C02343D02073E045A3E022D3F017F3F0200401F9D4C00024A558110BD01010201020201030201040601050501060401070F010905010A06010B04010C03010D02010E04010F0801110201120101130201140601150501160201170D0119169D4A001EBD011A2F0119020113020102020100827B9D554E75550003535B38ED7F3F02623C024439022E34023D30024D2C025D2802122601472303561F01661B027517027D15015714033213015F120D381C026426023632025A3E020040119D514600530077BD01010101020301030101040201050201060201090D010A04010B05010C03010D05010E04010F01011102011202011308011403011503011609011714011602011302010E02010A010106020102020100659D510083064F483BBD010101010302010402010502010702010A01010D02011102011402011902011C02012201012602012C02012F02013402013702013A02013C02013E07013D02013602012702010A020100049D4F00034E505F4E00014A3C3DBD010102010201010302010404010502010602010702010904010A03010B04010C02010E04010F02011105011202011302011401011604011906011A07011B02011C02011D02011F02012102012202012402012501012702012902012A02012B02012C05012D02012F20012D02012901012504012402012302011E0401170101004E9D4A008403535503ED234C02366702597E027F7F487B600200403C4C3702022A02561F017517025F1202141007501602552A02693A020040189D51550053005DBD010103010301010504010602010702010904010A02010B04010C03010D04010E02010F02011201011402011602011902011B02011E02012101012302012402012502012702012902012A02012B360124020116020105010100810D9D510083214F3C2A4E4E014F004F4E00024A4C75BD010104010202010302010401010504010604010706010902010A04010B01010C04010D04010E03010F0401110501120A011302011402011504011609011704011905011A0D011B1C011C339D4A001DBD011A020111020100844F9D53556EED1D43021C4E01385C035C6801627102687A027F7F32BD010402010602010B02010E02011202011502011902011B02011E02012301012602012A02012D02012F02013102013302013401013502013609013702013902013A04013B06013C03013D06013E07013F8126013E04013D02013C01013B0A013A030139040137040136010135020134020133020132009D530002BD013102012F02012E02012D02012C02012A02012602012301011F02011B02ED2B7F00BD011701ED3B7B01BD011401ED707801BD011101ED257600BD010C02ED2D7400BD010902ED627100BD010502ED4C6C00BD010101ED096801BD010001ED466302555F020B5D02655B021A59022A5502675002494D015949026845022541020040834A9D4A62264C5F004A00274C00024E52274E000951646CED5A3E02623C023C3B024439027936020135022E34035B33026331026B2F02722D027A2B02552A025D28023727016426243727025D2802552A017A2B02202D02452E0D182F023D30011031026331025B33020135022636027936024C3702713802173A023C3B02623C01073E025A3E022D3F0B7F3F0200404BBD010602010A01010C03010E01010F02011302011701011B03011E01012106011D01011702010D0301010101000D9D4E57005100284F59034E00235157024F0025510002556642BD010102010502010902010D02010F02011202011401011602011902011C02011F02012302012602012901012B02012C02012D02012E0B012B020117010100069D550004535D4EED073E024C3702182F020A28023F25027422094723023727024D2C010833023C3B0200400D9D530002515556BD010101010202010415010502010604010705010904010A02010C01010D02010E04010F0D010D020100049D5100034C59284E55004C00264E00024F6652BD01010201020201030901040A01051501063701072B010909010A02010B02010C02010D02010E02010F02011104011201011304011402011503011602011708011905011A02011B02011C02011D02011E02011F10012102012208012314012202011F02011D02011C02011902011602011302010E010109020100049D4F000B4F69284E59004F00274A48014E001F4A000D4A6946BD010201010402010504010602010902010B02010D02010E02010F03011106011202011301011402011502011602011703011902011A0A011B31011A05011906011701011602011402011202010E02010A010105020100299D4A00024C6968ED5A3E02623C023C3B02173A027138024C37027936020135015B33036331013D3002182F2B1031013632035B33022E34010135022636027936021E3801443903693A013C3B020F3C02343D02073E045A3E022D3F017F3F0200401F9D4C00024A558110BD01010201020201030201040601050501060401070F010905010A06010B04010C03010D02010E04010F0801110201120101130201140601150501160201170D0119169D4A001EBD011A2F0119020113020102020100827B9D554E75550003535B38ED7F3F02623C024439022E34023D30024D2C025D2802122601472303561F01661B027517027D15015714033213015F120D381C026426023632025A3E020040119D514600530077BD01010101020301030101040201050201060201090D010A04010B05010C03010D05010E04010F01011102011202011308011403011503011609011714011602011302010E02010A010106020102020100659D510083064F483BBD010101010302010402010502010702010A01010D02011102011402011902011C02012201012602012C02012F02013402013702013A02013C02013E07013D02013602012702010A020100049D4F00034E505F4E00014A3C3DBD010102010201010302010404010502010602010702010904010A03010B04010C02010E04010F02011105011202011302011401011604011906011A07011B02011C02011D02011F02012102012202012402012501012702012902012A02012B02012C05012D02012F20012D02012901012504012402012302011E0401170101004E9D4A008403535503ED234C02366702597E027F7F487B600200403C4C3702022A02561F017517025F1202141007501602552A02693A020040189D51550053005DBD010103010301010504010602010702010904010A02010B04010C03010D04010E02010F02011201011402011602011902011B02011E02012101012302012402012502012702012902012A02012B360124020116020105010100810D9D510083214F3C2A4E4E014F004F4E00024A4C75BD010104010202010302010401010504010604010706010902010A04010B01010C04010D04010E03010F0401110501120A011302011402011504011609011704011905011A0D011B1C011C339D4A001DBD011A020111020100844F9D53556EED1D43021C4E01385C035C6801627102687A027F7F32BD010402010602010B02010E02011202011502011902011B02011E02012301012602012A02012D02012F02013102013302013401013502013609013702013902013A04013B06013C03013D06013E07013F8126013E04013D02013C01013B0A013A030139040137040136010135020134020133020132009D530002BD013102012F02012E02012D02012C02012A02012602012301011F02011B02ED2B7F00BD011701ED3B7B01BD011401ED707801BD011101ED257600BD010C02ED2D7400BD010902ED627100BD010502ED4C6C00BD010101ED096801BD010001ED466302555F020B5D02655B021A59022A5502675002494D015949026845022541020040816B4A4202064901575402286002546A025A7302617C017F7F0D9D584444ED5275023E650222570160470200400B9D580004565551BD010101010502010702010B02010E02011101011402011702011A02011B02011D02011F02012102012301012402012502012902012A02012B02012C02012E02012F02013101013302013602013C02013E02014101014302014402014502014602014701014920014102012E020100259D56008F2CBD010102010201010302010404010502010602010702010904010A03010B04010C02010E04010F02011105011202011302011401011604011906011A07011B02011C02011D02011F02012102012202012402012501012702012902012A02012B02012C05012D02012F20012D02012901012504012402012302011E04011701010084519D535503ED234C02366702597E027F7F487B600200403C4C3702022A02561F017517025F1202141007501602552A02693A020040189D51550053005DBD010103010301010504010602010702010904010A02010B04010C03010D04010E02010F02011201011402011602011902011B02011E02012101012302012402012502012702012902012A02012B360124020116020105010100810D9D510083214F3C2A4E4E014F004F4E00024A4C75BD010104010202010302010401010504010604010706010902010A04010B01010C04010D04010E03010F0401110501120A011302011402011504011609011704011905011A0D011B1C011C339D4A001DBD011A020111020100844F9D53556EED1D43021C4E01385C035C6801627102687A027F7F32BD010402010602010B02010E02011202011502011902011B02011E02012301012602012A02012D02012F02013102013302013401013502013609013702013902013A04013B06013C03013D06013E07013F8126013E04013D02013C01013B0A013A030139040137040136010135020134020133020132009D530002BD013102012F02012E02012D02012C02012A02012602012301011F02011B02ED2B7F00BD011701ED3B7B01BD011401ED707801BD011101ED257600BD010C02ED2D7400BD010902ED627100BD010502ED4C6C00BD010101ED096801BD010001ED466302555F020B5D02655B021A59022A5502675002494D015949026845022541020040816B4A4202064901575402286002546A025A7302617C017F7F0D9D584444ED5275023E650222570160470200400B9D580004565551BD010101010502010702010B02010E02011101011402011702011A02011B02011D02011F02012102012301012402012502012902012A02012B02012C02012E02012F02013101013302013602013C02013E02014101014302014402014502014602014701014920014102012E020100259D560035BD010104010202010302010401010504010604010706010902010A04010B01010C04010D04010E03010F0401110501120A011302011402011504011609011704011905011A0D011B1C011C50011A020111020100844F9D53556EED1D43021C4E01385C035C6801627102687A027F7F32BD010402010602010B02010E02011202011502011902011B02011E02012301012602012A02012D02012F02013102013302013401013502013609013702013902013A04013B06013C03013D06013E07013F8126013E04013D02013C01013B0A013A030139040137040136010135020134020133020132009D530002BD013102012F02012E02012D02012C02012A02012602012301011F02011B02ED2B7F00BD011701ED3B7B01BD011401ED707801BD011101ED257600BD010C02ED2D7400BD010902ED627100BD010502ED4C6C00BD010101ED096801BD010001ED466302555F020B5D02655B021A59022A5502675002494D015949026845022541020040816B4A4202064901575402286002546A025A7302617C017F7F0D9D584444ED5275023E650222570160470200400B9D580004565551BD010101010502010702010B02010E02011101011402011702011A02011B02011D02011F02012102012301012402012502012902012A02012B02012C02012E02012F02013101013302013602013C02013E02014101014302014402014502014602014701014920014102012E020100259D560035BD010104010202010302010401010504010604010706010902010A04010B01010C04010D04010E03010F0401110501120A011302011402011504011609011704011905011A0D011B1C011C50011A020111020100844F9D55556EED1D43021C4E01385C035C6801627102687A027F7F32BD010402010602010B02010E02011202011502011902011B02011E02012301012602012A02012D02012F02013102013302013401013502013609013702013902013A04013B06013C03013D06013E07013F8126013E04013D02013C01013B0A013A030139040137040136010135020134020133020132009D550002BD013102012F02012E02012D02012C02012A02012602012301011F02011B02ED2B7F00BD011701ED3B7B01BD011401ED707801BD011101ED257600BD010C02ED2D7400BD010902ED627100BD010502ED4C6C00BD010101ED096801BD010001ED466302555F020B5D02655B021A59022A5502675002494D015949026845022541020040816B4A4202064901575402286002546A025A7302617C017F7F515275023E6502225701604702004060BD010101010502010702010B02010E02011101011402011702011A02011B02011D02011F02012102012301012402012502012902012A02012B02012C02012E02012F02013101013302013602013C02013E02014101014302014402014502014602014701014920014102012E02010000FF2F004D54726B000002A000C57800B5075A000A40005B58005D21812B95403C6E40008123423B5242007A432D464300814D40443B400083173E3C4E3E00814E4240374200830A42486042008131423E5442008106403C3F400081373E34383E00812A403D5640008321422D812E42004940305440007442354C420081214042474000812F422E464200831E4229524200812C422C4242002B42305042005A40306540007B422D4A42008112422B5F420081074024604000810242154D4200812F403066400081184230474200813040463340008149423B1542008306403C6E40008123423B5242007A432D464300814D40443B400083173E3C4E3E00814E4240374200830A42486042008131423E5442008106403C3F400081373E34383E00812A403D5640008321422D812E42004940305440007442354C420081214042474000812F422E464200831E4229524200812C422C4242002B42305042005A40306540007B422D4A42008112422B5F420081074024604000810242154D4200812F403066400081184230474200813040463340008143423B55420081173E40523E00830B4030614000825F402E454000813340332D40008150362441360081322F292C2F000F2F3C3C2F0081084A1A414A00810842354C420081214042474000812F422E464200831E4229524200812C422C4242002B42305042005A40306540007B422D4A42008112422B5F420081074024604000810242154D4200812F403066400081184230474200813040463340008143423B55420081173E40523E008113422B5F420081074024604000810242154D4200812F403066400081184230474200813040463340008143423B55420081173E40523E008113442B5F440081074224604200810244154D4400812F423066420081184430474400813042463342008143443B55440000FF2F004D54726B000007DF009F000100BF0700019F00008D0F00010100007700010100007701010101002701010101002701010101002701010101002701010101002701010101002701010101007701010101007701010101002701010101002701010101002701010101002701010101002701010101002701010101007700010100007701010101002701010101002701010101002701010101002701010101002701010101002701010101007701010101007701010101002701010101002701010101002701010101002701010101002701010101002701010101007700010100007701010101002701010101002701010101002701010101002701010101002701010101002701010101007701010101007701010101002701010101002701010101002701010101002701010101002701010101002701010101007700010100007701010101002701010101002701010101002701010101002701010101002701010101002701010101007701010101007701010101002701010101002701010101002701010101002701010101002701010101002701010101007700010100007701010101002701010101002701010101002701010101002701010101002701010101002701010101004F01010101002701010101002700010100004F0101010100270101010100270101010100270101010100270101010100270101010100270101010100770001010000770101010100270101010100270101010100270101010100270101010100270101010100270101010100770101010100770101010100270101010100270101010100270101010100270101010100270101010100270101010100835F00010100008B1F0001010000816F01010101002701010101002701010101002701010101002701010101002701010101002701010101007701010101007701010101002701010101002701010101002701010101002701010101002701010101002701010101007700010100007701010101002701010101002701010101002701010101002701010101002701010101002701010101007701010101007701010101002701010101002701010101002701010101002701010101002701010101002701010101007700010100007701010101002701010101002701010101002701010101002701010101002701010101002701010101007701010101007701010101002701010101002701010101002701010101002701010101002701010101002701010101007700010100007701010101002701010101002701010101002701010101002701010101002701010101002701010101004F01010101002701010101007701010101002701010101002701010101002701010101002701010101002701010101002701010101007700010100007701010101002701010101002701010101002701010101002701010101002701010101002701010101004F01010101002701010101002700010100004F01010101002701010101002701010101002701010101002701010101002701010101002701010101007700010100007701010101002701010101002701010101002701010101002701010101002701010101002701010101003B01010101003B01010101007701010101002701010101002701010101002701010101002701010101002701010101002701010101007700010100008E070001010000816F01010101002701010101002701010101002701010101002701010101002701010101002701010101007701010101007701010101002701010101002701010101002701010101002701010101002701010101002701010101007700010100007701010101002701010101002701010101002701010101002701010101002701010101002701010101007701010101007701010101002701010101002701010101002701010101002701010101002701010101002701010101007700010100007701010101002701010101002701010101002701010101002701010101002701010101002701010101004F01010101002701010101002700010100004F01010101002701010101002701010101002701010101002701010101002701010101002701010101007700010100007701010101002701010101002701010101002701010101002701010101002701010101002701010101007701010101007701010101002701010101002701010101002701010101002701010101002701010101002701010101007700010100007701010101002701010101002701010101002701010101002701010101002701010101002701010101007701010101007701010101002701010101002701010101002701010101002701010101002701010101002701010101007700010100007701010101002701010101002701010101002701010101002701010101002701010101002701010101007701010101007701010101002701010101002701010101002701010101002701010101002701010101002701010101007700010100007701010101002701010101002701010101002701010101002701010101002701010101002701010101007701010101007701010101002701010101002701010101002701010101002701010101002701010101002701010101007700010100007701010101002701010101002701010101002701010101002701010101002701010101002701010101007701010101007701010101002701010101002701010101002701010101002701010101002701010101002701010101008363010101010000FF2F00